# xmcd CD database file
#
# Track frame offsets:
#	150
#	12035
#	23536
#	35497
#	48791
#	60378
#	72827
#	86078
#	107545
#	119438
#	135992
#	152410
#	164579
#	179743
#
# Disc length: 2615 seconds
#
# Revision: 4
# Processed by: cddbd v1.4PL0 Copyright (c) Steve Scherf et al.
# Submitted via: NeoAudio 9.9.9
#
DISCID=a80a350e
DTITLE=GRISSEL - ABRIENDO CON LOS PODERES
DYEAR=2003
DGENRE=Merengue
TTITLE0=ME TENIAN AMARRAO
TTITLE1=ANTONIA GERBACIO
TTITLE2=ECUA
TTITLE3=EL HIJO DE ELEGUA
TTITLE4=FRANCISCO
TTITLE5=MARIA DE LA LUZ
TTITLE6=YEMAY'A
TTITLE7=PAPA CANDELO
TTITLE8=EL REY DEL MUNDO
TTITLE9=SANTA BARBARA
TTITLE10=SUELTAME SUELTAME
TTITLE11=LA VIRGENCITA DE LA MERCEDES
TTITLE12=SANTA MARTHA
TTITLE13=LEVANTEN LA VIRGEN
EXTD=YEAR: 2003
EXTT0=
EXTT1=
EXTT2=
EXTT3=
EXTT4=
EXTT5=
EXTT6=
EXTT7=
EXTT8=
EXTT9=
EXTT10=
EXTT11=
EXTT12=
EXTT13=
PLAYORDER=
